<?xml version="1.0" encoding="UTF-8"?>
<svg id="Layer_1" data-name="Layer 1" xmlns="http://www.w3.org/2000/svg" viewBox="0 0 1173.81 78.7">
  <defs>
    <style>
      .cls-1, .cls-2 {
        stroke-width: 0px;
      }

      .cls-2 {
        fill: #fff;
      }
    </style>
  </defs>
  <g>
    <rect class="cls-1" y="2.47" width="74.74" height="74.74" rx="24.25" ry="24.25"/>
    <g>
      <path class="cls-2" d="m21.42,22.05h8.17c5.29,0,7.91,2.8,7.91,8.44v1.95c0,5.58-2.1,8.94-8.15,8.94h-1.8v12.52h-6.13v-31.85Zm6.13,14.36h.99c2.32,0,2.82-1.3,2.82-3.95v-2.2c0-2.06-.48-3.39-2.52-3.39h-1.28v9.54Z"/>
      <path class="cls-2" d="m45.14,45.75v1.18c0,1.39.29,2.54,1.56,2.54.94,0,1.42-.6,1.42-1.94s-.33-2.31-3.3-4.2c-3.75-2.38-5.26-4.19-5.26-7.84,0-4.59,2.52-7.11,7.18-7.11,5.61,0,7.16,3.08,7.16,7.34v1.07h-5.66v-1.52c0-1.59-.44-2.14-1.36-2.14s-1.33.68-1.33,1.82.51,1.76,2.67,3.1c4.65,2.88,6.05,4.9,6.05,8.64,0,4.92-2.18,7.62-7.61,7.62-6.43,0-7.41-3.98-7.41-7.61v-.93h5.88Z"/>
    </g>
  </g>
  <g>
    <rect class="cls-1" x="549.54" y="3.96" width="74.74" height="74.74" rx="24.25" ry="24.25"/>
    <g>
      <path class="cls-2" d="m579.57,53.89c-.08-1.14-2.11-9.6-2.21-10.95h-.17c-.05,1.04-2.28,10-2.36,10.95h-6.17l4.79-15.88-4.62-15.97h6.54c.05.72,1.92,9.26,1.95,10.1h.18c.07-.87,2.05-9.36,2.1-10.1h6.15l-4.62,14.94,4.99,16.91h-6.55Z"/>
      <path class="cls-2" d="m602.76,20.65v26.21c0,3.57.02,5.71.06,7.03h-5.81c-.1-.65-.19-1.79-.21-2.29-.98,1.77-2.27,2.69-4.57,2.69-4,0-5.33-3.09-5.33-8.03v-10.35c0-4.18,1.51-7.54,5.76-7.54,1.61,0,3.26.47,3.96,1.78v-9.51h6.13Zm-9.72,15.72v9.9c0,1.72.43,2.71,1.76,2.71,1.46,0,1.83-1.29,1.83-3.44v-8.43c0-2.24-.26-3.43-1.8-3.43-1.3,0-1.8.94-1.8,2.68Z"/>
    </g>
  </g>
  <g>
    <rect class="cls-1" x="1099.07" width="74.74" height="74.74" rx="24.25" ry="24.25"/>
    <g>
      <path class="cls-2" d="m1130.12,46.41l-.78,7.58h-6.24l4.5-31.85h9.13l4.61,31.85h-6.37l-.88-7.58h-3.97Zm3.45-5.4c-.45-4.07-1.09-10.27-1.39-13.32h-.24c-.11,2.22-.87,9.38-1.29,13.32h2.91Z"/>
      <path class="cls-2" d="m1143.63,28.86h6.13v25.13h-6.13v-25.13Zm.03-8.11h6.13v5.55h-6.13v-5.55Z"/>
    </g>
  </g>
  <g>
    <rect class="cls-1" x="824.3" y="2.18" width="74.74" height="74.74" rx="24.25" ry="24.25"/>
    <g>
      <path class="cls-2" d="m848.04,23.63h6.13v26.49h7.7l-.55,5.36h-13.28v-31.85Z"/>
      <path class="cls-2" d="m864.09,38.87c0-4.3.01-6.36-.06-8.53h5.85c.06.51.18,2.61.18,3.75.9-2.93,2.91-4.12,5.25-4.14v7.37c-2.95,0-5.08.55-5.08,4.81v13.33h-6.13v-16.6Z"/>
    </g>
  </g>
  <g>
    <rect class="cls-1" x="274.77" y="3.96" width="74.74" height="74.74" rx="24.25" ry="24.25"/>
    <g>
      <path class="cls-2" d="m305.73,22.05v31.85h-6.12v-31.85h6.12Z"/>
      <path class="cls-2" d="m324.8,20.65v26.21c0,3.57.02,5.71.06,7.03h-5.81c-.1-.65-.19-1.79-.21-2.29-.98,1.77-2.27,2.69-4.57,2.69-4,0-5.33-3.09-5.33-8.03v-10.35c0-4.18,1.51-7.54,5.76-7.54,1.61,0,3.26.47,3.96,1.78v-9.51h6.13Zm-9.72,15.72v9.9c0,1.72.43,2.71,1.76,2.71,1.46,0,1.83-1.29,1.83-3.44v-8.43c0-2.24-.26-3.43-1.8-3.43-1.3,0-1.8.94-1.8,2.68Z"/>
    </g>
  </g>
</svg>