<?xml version="1.0" encoding="UTF-8"?>
<svg id="Layer_1" data-name="Layer 1" xmlns="http://www.w3.org/2000/svg" viewBox="0 0 686.24 69.32">
  <defs>
    <style>
      .cls-1, .cls-2 {
        stroke-width: 0px;
      }

      .cls-2 {
        fill: #fc7cbc;
      }
    </style>
  </defs>
  <g>
    <path class="cls-1" d="m65.27.77v68.29h-13.39v-29.02l-19.18,27.9h-.08l-19.22-27.9v29.02H0V.77h.74l31.91,44.02L64.53.77h.74Z"/>
    <path class="cls-1" d="m90.23,15.61v13.02h22.98v13.35h-22.98v13.77h26.79v13.31h-40.18V2.43h40.18v13.19h-26.79Z"/>
    <path class="cls-1" d="m180.91,35.83c0,20.67-13.14,33.23-34.68,33.23h-19.39V2.47l19.39-.04c21.54-.04,34.68,12.61,34.68,33.4Zm-13.52-.04c0-12.48-8.02-20.09-21.21-20.09h-5.99v40.01h6.12c13.1,0,21.08-7.52,21.08-19.92Z"/>
    <path class="cls-1" d="m189.59,2.43h13.39v66.63h-13.39V2.43Z"/>
    <path class="cls-1" d="m255.02,59.76h-26.66l-4.26,9.3h-14.47L241.46.77h.41l31.87,68.29h-14.51l-4.22-9.3Zm-5.21-11.41l-8.1-17.82-8.14,17.82h16.25Z"/>
  </g>
  <g>
    <path class="cls-2" d="m313.09,57c0,5.77-4.15,11.85-12.19,11.85h-14.76V29.78h10.67c6.93,0,11.34,5.09,11.34,10.35,0,4.14-2.74,6.71-3.68,6.71,3.76,0,8.63,3.88,8.63,10.16Zm-19.12-19.58v7.63h3.18c1.87,0,3.68-1.6,3.68-3.88s-1.72-3.76-3.54-3.76h-3.32Zm11.46,19.03c0-2.25-1.55-4.51-5.28-4.51h-6.18v9.26h6.2c2.55,0,5.26-1.75,5.26-4.75Z"/>
    <path class="cls-2" d="m321.39,52.08l-12.09-22.3h8.87l7.13,13.57,7.13-13.57h8.89l-12.12,22.3v16.77h-7.8v-16.77Z"/>
  </g>
  <g>
    <path class="cls-1" d="m393.37,14.51h-16.37v53.37h-13.43V14.51h-16.41V1.24h46.21v13.27Z"/>
    <path class="cls-1" d="m400.3,43.24V1.24h13.48v41.96c0,7.28,5.75,12.57,12.19,12.57s12.28-5.33,12.28-12.57V1.24h13.48v42c0,15.09-11.53,26.08-25.71,26.08s-25.71-11-25.71-26.08Z"/>
    <path class="cls-1" d="m497.36,67.87l-21.21-31.5v31.5h-13.39l-.04-66.63h21.74c12.44,0,22.65,9.59,22.65,21.58,0,8.56-5.17,16.04-12.32,18.56l18.93,26.5h-16.37Zm-21.25-36.62l8.6.04c4.55.04,8.6-3.64,8.6-8.39s-4.09-8.39-8.6-8.39h-8.6v16.74Z"/>
    <path class="cls-1" d="m573.66,1.08v68.04h-.62l-39.56-38.48v37.33h-13.39V0h.66l39.48,38.4V1.08h13.43Z"/>
    <path class="cls-1" d="m598.62,14.43v13.02h22.98v13.35h-22.98v13.76h26.79v13.31h-40.18V1.24h40.18v13.19h-26.79Z"/>
    <path class="cls-1" d="m669.87,67.87l-21.21-31.5v31.5h-13.39l-.04-66.63h21.74c12.44,0,22.65,9.59,22.65,21.58,0,8.56-5.17,16.04-12.32,18.56l18.93,26.5h-16.37Zm-21.25-36.62l8.6.04c4.55.04,8.6-3.64,8.6-8.39s-4.09-8.39-8.6-8.39h-8.6v16.74Z"/>
  </g>
</svg>